# AST/ASF file generated using VICON BodyLanguage
# -----------------------------------------------
:version 1.10
:name VICON
:units
  mass 1.0
  length 0.45
  angle deg
:documentation
   .ast/.asf automatically generated from VICON data using
   VICON BodyBuilder and BodyLanguage model FoxedUp or BRILLIANT.MOD
:root
   order TX TY TZ RX RY RZ
   axis XYZ
   position 0 0 0  
   orientation 0 0 0 
:bonedata
  begin
     id 1 
     name lhipjoint
     direction 0.621036 -0.695554 0.361275 
     length 2.46325 
     axis 0 0 0  XYZ
  end
  begin
     id 2 
     name lfemur
     direction 0.34202 -0.939693 0  
     length 6.54784  
     axis 0 0 20  XYZ
    dof rx ry rz
    limits (-160.0 20.0)
           (-70.0 70.0)
           (-60.0 70.0)
  end
  begin
     id 3 
     name ltibia
     direction 0.34202 -0.939693 0   
     length 7.84737   
     axis 0 0 20   XYZ
    dof rx
    limits (-10.0 170.0)
  end
  begin
     id 4 
     name lfoot
     direction 0.0790693 -0.217241 0.97291   
     length 2.59747   
     axis -90 7.62852e-016 20   XYZ
    dof rx rz
    limits (-45.0 90.0)
           (-70.0 20.0)
  end
  begin
     id 5 
     name ltoes
     direction 1.53572e-011 -4.21898e-011 1   
     length 1.29919   
     axis -90 7.62852e-016 20   XYZ
    dof rx
    limits (-90.0 20.0)
  end
  begin
     id 6 
     name rhipjoint
     direction -0.602353 -0.708375 0.367935   
     length 2.41867  
     axis 0 0 0  XYZ 
  end
  begin
     id 7 
     name rfemur
     direction -0.34202 -0.939693 0   
     length 6.92065   
     axis 0 0 -20   XYZ
    dof rx ry rz
    limits (-160.0 20.0)
           (-70.0 70.0)
           (-70.0 60.0)
  end
  begin
     id 8 
     name rtibia
     direction -0.34202 -0.939693 0   
     length 7.88883   
     axis 0 0 -20   XYZ
    dof rx
    limits (-10.0 170.0)
 end
 begin
     id 9 
     name rfoot
     direction -0.0768692 -0.211196 0.974416   
     length 2.43714  
     axis -90 -7.62852e-016 -20   XYZ
    dof rx rz
    limits (-45.0 90.0)
           (-20.0 70.0)
  end
  begin
     id 10 
     name rtoes
     direction -1.53575e-011 -4.21933e-011 1   
     length 1.22113   
     axis -90 -7.62852e-016 -20   XYZ
    dof rx
    limits (-90.0 20.0)
  end
  begin
     id 11 
     name lowerback
     direction 0.0197937 0.98943 -0.143655   
     length 2.16931   
     axis 0 0 0   XYZ
    dof rx ry rz
    limits (-20.0 45.0)
           (-30.0 30.0)
           (-30.0 30.0)
  end
  begin
     id 12 
     name upperback
     direction -0.00183968 0.999975 0.00684288   
     length 2.17221   
     axis 0 0 0   XYZ
    dof rx ry rz
    limits (-20.0 45.0)
           (-30.0 30.0)
           (-30.0 30.0)
  end
  begin
     id 13 
     name thorax
     direction -0.00950244 0.997208 0.0740685   
     length 2.22549   
     axis 0 0 0   XYZ
    dof rx ry rz
    limits (-20.0 45.0)
           (-30.0 30.0)
           (-30.0 30.0)
  end
  begin
     id 14 
     name lowerneck
     direction 0.0218238 0.996215 0.0841425   
     length 1.77269   
     axis 0 0 0   XYZ
    dof rx ry rz
    limits (-20.0 45.0)
           (-30.0 30.0)
           (-30.0 30.0)
  end
  begin
     id 15 
     name upperneck
     direction -0.00430652 0.994214 -0.107332   
     length 1.76534   
     axis 0 0 0   XYZ
    dof rx ry rz
    limits (-20.0 45.0)
           (-30.0 30.0)
           (-30.0 30.0)
  end
  begin
     id 16
     name head
     direction -0.00328946 0.998959 -0.0454998  
     length 1.82634  
     axis 0 0 0   XYZ
    dof rx ry rz
    limits (-20.0 45.0)
           (-30.0 30.0)
           (-30.0 30.0)
  end
  begin
     id 17 
     name lclavicle
     direction 0.970962 0.239191 0.00450212  
     length 3.84872  
     axis 0 0 0   XYZ
    dof ry rz
    limits (-20.0 10.0)
           (0.0 20.0)
  end
  begin
     id 18 
     name lhumerus
     direction 1 -4.48966e-011 5.74696e-028   
     length 5.22771   
     axis 180 -30 -90   XYZ
    dof rx ry rz
    limits (-60.0 90.0)
           (-90.0 90.0)
           (-90.0 90.0)
  end
  begin
     id 19
     name lradius
     direction 1 -4.4896e-011 4.25109e-027   
     length 3.45251   
     axis 180 -30 -90   XYZ
    dof rx
    limits (-10.0 170.0)
  end
  begin
     id 20
     name lwrist
     direction 1 -4.48971e-011 1.15382e-027   
     length 1.72626   
     axis -5.52449e-016 90 90   XYZ
    dof ry
    limits (-180.0 0.0)
 end
  begin
     id 21 
     name lhand
     direction 1 -4.49034e-011 2.30765e-027   
     length 0.552119   
     axis -1.47248e-015 90 90   XYZ
    dof rx rz
    limits (-90.0 90.0)
           (-45.0 45.0)
  end
  begin
     id 22 
     name lfingers
     direction 1 -4.48951e-011 4.61529e-027   
     length 0.445133   
     axis -2.94495e-015 90 90   XYZ
    dof rx
    limits (0.0 90.0)
  end
  begin
     id 23
     name lthumb
     direction 0.707107 -6.34991e-011 0.707107   
     length 0.639124   
     axis -90 45 2.85299e-015   XYZ
    dof rx rz
    limits (-45.0 45.0)
           (-45.0 45.0)
  end
  begin
     id 24 
     name rclavicle
     direction -0.97424 0.222511 -0.0366699   
     length 3.73439  
     axis 0 0 0   XYZ 
    dof ry rz
    limits (-10.0 20.0)
           (-20.0 0.0)
  end
  begin
     id 25 
     name rhumerus
     direction -1 -4.48956e-011 -4.97258e-028  
     length 5.2398   
     axis 180 30 90   XYZ
    dof rx ry rz
    limits (-90.0 60.0)
           (-90.0 90.0)
           (-90.0 90.0)
  end
  begin
     id 26 
     name rradius
     direction -1 -4.4897e-011 -1.72611e-027   
     length 3.48042   
     axis 180 30 90   XYZ
    dof rx
    limits (-10.0 170.0)
  end
  begin
     id 27 
     name rwrist
     direction -1 -4.48976e-011 1.15382e-027   
     length 1.74021   
     axis -5.52449e-016 -90 -90   XYZ
    dof ry
    limits (-180.0 0.0)
  end
  begin
     id 28
     name rhand
     direction -1 -4.48963e-011 2.30765e-027   
     length 0.618713   
     axis -1.47248e-015 -90 -90   XYZ
    dof rx rz
    limits (-90.0 90.0)
           (-45.0 45.0)
  end
  begin
     id 29
     name rfingers
     direction -1 -4.4888e-011 4.61529e-027   
     length 0.498823   
     axis -2.94495e-015 -90 -90   XYZ
    dof rx
    limits (0.0 90.0)
  end
  begin
     id 30
     name rthumb
     direction -0.707107 -6.34968e-011 0.707107   
     length 0.716213   
     axis -90 -45 -2.85299e-015   XYZ
    dof rx rz
    limits (-45.0 45.0)
           (-45.0 45.0)
  end
:hierarchy
  begin
    root lhipjoint rhipjoint lowerback
    lhipjoint lfemur
    lfemur ltibia
    ltibia lfoot
    lfoot ltoes
    rhipjoint rfemur
    rfemur rtibia
    rtibia rfoot
    rfoot rtoes
    lowerback upperback
    upperback thorax
    thorax lowerneck lclavicle rclavicle
    lowerneck upperneck
    upperneck head
    lclavicle lhumerus
    lhumerus lradius
    lradius lwrist
    lwrist lhand lthumb
    lhand lfingers
    rclavicle rhumerus
    rhumerus rradius
    rradius rwrist
    rwrist rhand rthumb
    rhand rfingers
  end

#!OML:ASF G:\JayActor3\Patient Classification 1\Patient 1\Session 5\male.ASF
:FULLY-SPECIFIED
:DEGREES
40
root -33.8957 15.4807 -5.94394 17.8987 -86.2096 1.71769
lowerback 30.2989 -1.36462 2.68924
upperback 9.10138 -1.76211 -0.0198541
thorax -6.41696 -1.16203 -0.929173
lowerneck 3.16645 0.753294 2.75606
upperneck -27.7241 0.643916 0.473394
head -9.19103 -0.47353 -0.296106
rclavicle -1.35174e-014 -1.5207e-014
rhumerus -22.0347 7.13272 -88.3929
rradius 52.5588
rwrist -9.12689
rhand -19.4694 -10.894
rfingers 7.12502
rthumb 6.85205 -40.7632
lclavicle -1.35174e-014 -1.5207e-014
lhumerus -23.1102 -9.02373 85.0323
lradius 48.5266
lwrist 28.4078
lhand -20.4058 13.6115
lfingers 7.12502
lthumb 5.94801 43.508
rfemur -62.0383 -2.82936 24.426
rtibia 68.4877
rfoot -26.1095 -10.6104
rtoes 6.27644
lfemur -59.2503 4.14295 -20.6743
ltibia 61.1854
lfoot -20.3592 3.09335
ltoes -2.82386
41
root -33.8971 15.4813 -5.94253 18.0523 -86.2131 1.56147
lowerback 30.305 -1.36358 2.69386
upperback 9.10267 -1.75967 -0.0200554
thorax -6.41831 -1.161 -0.932786
lowerneck 3.17944 0.755578 2.76514
upperneck -27.7361 0.649188 0.474894
head -9.19771 -0.472504 -0.297575
rclavicle 2.45499e-014 1.19271e-015
rhumerus -22.0549 7.13392 -88.4174
rradius 52.5765
rwrist -9.10804
rhand -19.4439 -10.9067
rfingers 7.12502
rthumb 6.87664 -40.775
lclavicle 2.45499e-014 1.19271e-015
lhumerus -23.1443 -9.00782 85.0514
lradius 48.5449
lwrist 28.4156
lhand -20.4075 13.6028
lfingers 7.12502
lthumb 5.94639 43.4993
rfemur -62.0257 -2.84105 24.4364
rtibia 68.4793
rfoot -26.1058 -10.5856
rtoes 6.30168
lfemur -59.2404 4.15313 -20.6718
ltibia 61.1858
lfoot -20.3639 3.08307
ltoes -2.81921
42
root -33.8986 15.482 -5.94108 18.2303 -86.2166 1.37554
lowerback 30.3168 -1.36426 2.70009
upperback 9.10484 -1.759 -0.0202985
thorax -6.42145 -1.16091 -0.936631
lowerneck 3.19211 0.757023 2.78014
upperneck -27.7479 0.651421 0.46658
head -9.20419 -0.472509 -0.303184
rclavicle 9.44227e-015 7.05686e-015
rhumerus -22.0748 7.13784 -88.4436
rradius 52.5935
rwrist -9.09812
rhand -19.4231 -10.9224
rfingers 7.12502
rthumb 6.89677 -40.7901
lclavicle 9.44227e-015 7.05686e-015
lhumerus -23.1815 -8.99028 85.0691
lradius 48.5614
lwrist 28.426
lhand -20.4093 13.5942
lfingers 7.12502
lthumb 5.94465 43.4908
rfemur -62.0046 -2.84993 24.4469
rtibia 68.4699
rfoot -26.1044 -10.5643
rtoes 6.31353
lfemur -59.2236 4.16403 -20.6668
ltibia 61.1856
lfoot -20.3712 3.07132
ltoes -2.80741
43
root -33.9001 15.4828 -5.9396 18.3954 -86.2195 1.20079
lowerback 30.3299 -1.36707 2.7063
upperback 9.10919 -1.76132 -0.0213305
thorax -6.4228 -1.16228 -0.940319
lowerneck 3.20005 0.759139 2.79592
upperneck -27.7593 0.652939 0.452839
head -9.20961 -0.47244 -0.310724
rclavicle 3.50855e-014 4.34344e-014
rhumerus -22.0906 7.14586 -88.4711
rradius 52.6121
rwrist -9.09701
rhand -19.4093 -10.9398
rfingers 7.12502
rthumb 6.91005 -40.807
lclavicle 3.50855e-014 4.34344e-014
lhumerus -23.2167 -8.96975 85.0847
lradius 48.5742
lwrist 28.4355
lhand -20.4075 13.5932
lfingers 7.12502
lthumb 5.94639 43.4898
rfemur -61.9806 -2.85542 24.4544
rtibia 68.4595
rfoot -26.1035 -10.546
rtoes 6.32629
lfemur -59.2041 4.17344 -20.6621
ltibia 61.1839
lfoot -20.3792 3.06141
ltoes -2.79724
44
root -33.9015 15.4837 -5.93814 18.5808 -86.221 1.00459
lowerback 30.3422 -1.37242 2.71388
upperback 9.11585 -1.76672 -0.0225027
thorax -6.42135 -1.16516 -0.943936
lowerneck 3.21222 0.76068 2.81331
upperneck -27.7787 0.65301 0.436526
head -9.21867 -0.473305 -0.319264
rclavicle -3.1408e-014 -3.54334e-014
rhumerus -22.1005 7.15915 -88.5003
rradius 52.6266
rwrist -9.10539
rhand -19.4063 -10.9432
rfingers 7.12502
rthumb 6.91296 -40.8104
lclavicle -3.1408e-014 -3.54334e-014
lhumerus -23.2482 -8.94669 85.0969
lradius 48.5819
lwrist 28.4459
lhand -20.4064 13.5996
lfingers 7.12502
lthumb 5.94747 43.4961
rfemur -61.9532 -2.85985 24.4631
rtibia 68.4472
rfoot -26.101 -10.5349
rtoes 6.32001
lfemur -59.182 4.18118 -20.6548
ltibia 61.1803
lfoot -20.3876 3.05329
ltoes -2.79159
45
root -33.903 15.4846 -5.93673 18.7566 -86.2221 0.819078
lowerback 30.3516 -1.37824 2.72112
upperback 9.12441 -1.77309 -0.0241622
thorax -6.41639 -1.16849 -0.947665
lowerneck 3.22031 0.761234 2.83103
upperneck -27.7993 0.651115 0.419704
head -9.22743 -0.475234 -0.327838
rclavicle 5.76476e-015 -4.32357e-015
rhumerus -22.1042 7.17311 -88.5298
rradius 52.637
rwrist -9.11956
rhand -19.4183 -10.9329
rfingers 7.12502
rthumb 6.90134 -40.8004
lclavicle 5.76476e-015 -4.32357e-015
lhumerus -23.2746 -8.925 85.1078
lradius 48.5847
lwrist 28.4537
lhand -20.4024 13.6072
lfingers 7.12502
lthumb 5.95128 43.5036
rfemur -61.9254 -2.8589 24.469
rtibia 68.4338
rfoot -26.0996 -10.5292
rtoes 6.31982
lfemur -59.1601 4.18656 -20.6469
ltibia 61.1744
lfoot -20.3949 3.04939
ltoes -2.79215
46
root -33.9046 15.4854 -5.93541 18.883 -86.2243 0.686475
lowerback 30.3554 -1.38375 2.72379
upperback 9.13451 -1.7807 -0.0268012
thorax -6.40709 -1.17238 -0.949587
lowerneck 3.23112 0.760767 2.85179
upperneck -27.8266 0.647801 0.402368
head -9.2391 -0.478409 -0.336954
rclavicle -2.84262e-014 1.00386e-014
rhumerus -22.1024 7.18909 -88.56
rradius 52.646
rwrist -9.13803
rhand -19.4377 -10.9175
rfingers 7.12502
rthumb 6.88264 -40.7856
lclavicle -2.84262e-014 1.00386e-014
lhumerus -23.2965 -8.90682 85.1161
lradius 48.5838
lwrist 28.4619
lhand -20.3987 13.6122
lfingers 7.12502
lthumb 5.95493 43.5085
rfemur -61.9021 -2.85193 24.4693
rtibia 68.4205
rfoot -26.1011 -10.5284
rtoes 6.3216
lfemur -59.1407 4.19028 -20.6424
ltibia 61.1667
lfoot -20.4016 3.04991
ltoes -2.80277
47
root -33.9063 15.4863 -5.93424 18.9706 -86.2289 0.596571
lowerback 30.3543 -1.38745 2.72094
upperback 9.1449 -1.78782 -0.0306899
thorax -6.39515 -1.17597 -0.950006
lowerneck 3.24458 0.761188 2.87297
upperneck -27.8588 0.646348 0.387211
head -9.25303 -0.481176 -0.345532
rclavicle 1.90833e-014 1.68967e-014
rhumerus -22.0963 7.20589 -88.5916
rradius 52.6522
rwrist -9.15849
rhand -19.4636 -10.9009
rfingers 7.12502
rthumb 6.85768 -40.7699
lclavicle 1.90833e-014 1.68967e-014
lhumerus -23.3157 -8.89127 85.1219
lradius 48.5805
lwrist 28.4635
lhand -20.3904 13.6199
lfingers 7.12502
lthumb 5.96291 43.516
rfemur -61.8847 -2.83653 24.4641
rtibia 68.4074
rfoot -26.103 -10.5345
rtoes 6.33001
lfemur -59.1253 4.1929 -20.64
ltibia 61.1577
lfoot -20.4057 3.05527
ltoes -2.81806
48
root -33.908 15.4872 -5.93305 19.0254 -86.2343 0.542742
lowerback 30.3514 -1.39038 2.7167
upperback 9.15491 -1.79436 -0.0351032
thorax -6.38278 -1.17925 -0.950455
lowerneck 3.25806 0.761801 2.89108
upperneck -27.8924 0.645582 0.375355
head -9.2675 -0.483709 -0.352496
rclavicle 1.08338e-014 9.93923e-016
rhumerus -22.0882 7.22077 -88.6221
rradius 52.6579
rwrist -9.17602
rhand -19.4867 -10.8929
rfingers 7.12502
rthumb 6.8353 -40.7626
lclavicle 1.08338e-014 9.93923e-016
lhumerus -23.332 -8.88054 85.1276
lradius 48.5738
lwrist 28.4624
lhand -20.3762 13.6281
lfingers 7.12502
lthumb 5.9766 43.5238
rfemur -61.8718 -2.81849 24.4555
rtibia 68.3942
rfoot -26.1066 -10.5431
rtoes 6.33144
lfemur -59.1129 4.19353 -20.6397
ltibia 61.1474
lfoot -20.4088 3.06292
ltoes -2.83017
